<svg viewBox="0 0 69.801 30.002" width="69.801" height="30.002" xmlns="http://www.w3.org/2000/svg">
  <path fill="#007FFF" fill-rule="evenodd" clip-rule="evenodd" d="M 29.251 20.486 C 29.549 20.314 29.734 19.997 29.735 19.653 L 29.752 14.074 C 29.753 13.73 29.938 13.413 30.236 13.241 L 33.26 11.504 C 33.903 11.135 34.704 11.599 34.704 12.34 L 34.704 22.482 C 34.704 22.827 34.52 23.146 34.22 23.318 L 22.807 29.873 C 22.511 30.044 22.146 30.044 21.849 29.874 L 12.892 24.752 C 12.592 24.58 12.406 24.261 12.406 23.915 L 12.406 18.801 C 12.406 18.795 12.413 18.791 12.419 18.794 C 12.424 18.797 12.43 18.794 12.43 18.787 L 12.43 18.781 C 12.43 18.778 12.432 18.774 12.436 18.772 L 19.813 14.534 C 19.82 14.53 19.817 14.519 19.809 14.519 C 19.805 14.519 19.801 14.516 19.801 14.512 L 19.816 9.498 C 19.819 8.756 19.017 8.289 18.373 8.657 C 18.372 8.658 18.371 8.659 18.37 8.659 L 12.887 11.818 C 12.59 11.99 12.223 11.99 11.925 11.818 L 6.426 8.651 C 5.783 8.282 4.981 8.745 4.98 9.486 L 4.98 18.548 C 4.981 19.289 4.181 19.753 3.538 19.386 L 0.486 17.641 C 0.185 17.469 0 17.149 0 16.802 L 0.027 0.963 C 0.029 0.223 0.83 -0.239 1.471 0.129 L 11.926 6.134 C 12.224 6.305 12.589 6.305 12.886 6.134 L 23.338 0.129 C 23.981 -0.24 24.783 0.225 24.783 0.966 L 24.783 16.809 C 24.783 17.154 24.598 17.473 24.3 17.645 L 18.826 20.797 C 18.183 21.168 18.182 22.095 18.825 22.467 C 18.826 22.468 18.828 22.469 18.83 22.47 L 21.849 24.189 C 22.146 24.358 22.51 24.357 22.806 24.187 L 29.251 20.486 Z M 29.884 6.274 C 29.885 7.016 30.688 7.479 31.331 7.108 C 31.335 7.105 31.339 7.103 31.344 7.1 L 34.236 5.365 C 34.526 5.191 34.704 4.877 34.704 4.539 L 34.704 1.003 C 34.703 0.261 33.899 -0.202 33.257 0.171 C 33.253 0.173 33.249 0.175 33.245 0.178 L 30.353 1.913 C 30.062 2.087 29.884 2.401 29.884 2.739 L 29.884 6.275 L 29.884 6.274 Z" data-bx-origin="0.499741 0.5"></path>
  <path fill="#007FFF" d="M 64.231 26.667 C 61.563 28.829 58.233 30.006 54.8 30 C 51.23 30 47.948 28.752 45.372 26.667 L 64.231 26.667 Z M 42.327 23.333 C 41.632 22.296 41.07 21.177 40.655 20 L 68.948 20 C 68.532 21.177 67.97 22.296 67.277 23.333 L 42.327 23.333 Z M 39.892 16.667 C 39.77 15.559 39.77 14.441 39.892 13.333 L 69.71 13.333 C 69.832 14.441 69.832 15.559 69.71 16.667 L 39.892 16.667 Z M 40.655 10 C 41.07 8.823 41.632 7.704 42.327 6.667 L 67.275 6.667 C 67.963 7.695 68.528 8.814 68.947 10 L 40.654 10 L 40.655 10 Z M 64.231 3.333 C 61.563 1.171 58.233 -0.006 54.8 0 C 51.23 0 47.948 1.248 45.372 3.333 L 64.231 3.333 Z" style=""></path>
</svg>
